# Blender v3.0.1 OBJ File: 'Ship.blend'
# www.blender.org
mtllib Circle.mtl
o Circle
v 0.000000 0.000000 -1.000000
v -0.195090 0.000000 -0.980785
v -0.382683 0.000000 -0.923880
v -0.555570 0.000000 -0.831470
v -0.707107 0.000000 -0.707107
v -0.831470 0.000000 -0.555570
v -0.923880 0.000000 -0.382683
v -0.980785 0.000000 -0.195090
v -1.000000 0.000000 0.000000
v -0.980785 0.000000 0.195090
v -0.923880 0.000000 0.382683
v -0.831470 0.000000 0.555570
v -0.707107 0.000000 0.707107
v -0.555570 0.000000 0.831470
v -0.382683 0.000000 0.923880
v -0.195090 0.000000 0.980785
v 0.000000 0.000000 1.000000
v 0.195090 0.000000 0.980785
v 0.382683 0.000000 0.923880
v 0.555570 0.000000 0.831470
v 0.707107 0.000000 0.707107
v 0.831469 0.000000 0.555570
v 0.923880 0.000000 0.382684
v 0.980785 0.000000 0.195090
v 1.000000 0.000000 -0.000000
v 0.980785 0.000000 -0.195090
v 0.923879 0.000000 -0.382684
v 0.831470 0.000000 -0.555570
v 0.707107 0.000000 -0.707107
v 0.555570 0.000000 -0.831470
v 0.382683 0.000000 -0.923880
v 0.195090 0.000000 -0.980785
v -0.665247 0.000000 -0.653282
v -0.746744 0.000000 -0.449988
v -0.796929 0.000000 -0.229402
v -0.813875 0.000000 0.000000
v -0.796929 0.000000 0.229402
v -0.746744 0.000000 0.449988
v -0.665247 0.000000 0.653282
v -0.463927 0.000000 -0.725887
v -0.524297 0.000000 -0.500000
v -0.561473 0.000000 -0.254898
v -0.574025 0.000000 0.000000
v -0.561473 0.000000 0.254898
v -0.524297 0.000000 0.500000
v -0.463927 0.000000 0.725887
v -0.238214 0.000000 -0.770598
v -0.270258 0.000000 -0.530797
v -0.289991 0.000000 -0.270598
v -0.296654 0.000000 0.000000
v -0.289991 0.000000 0.270598
v -0.270258 0.000000 0.530797
v -0.238214 0.000000 0.770598
v 0.000000 0.000000 -0.785695
v -0.000000 0.000000 -0.541196
v 0.000000 0.000000 -0.275900
v 0.000000 0.000000 -0.000000
v 0.000000 0.000000 0.275899
v 0.000000 0.000000 0.541196
v -0.000000 0.000000 0.785695
v 0.238214 0.000000 -0.770598
v 0.270258 0.000000 -0.530797
v 0.289991 0.000000 -0.270598
v 0.296654 0.000000 -0.000000
v 0.289991 0.000000 0.270598
v 0.270258 0.000000 0.530797
v 0.238214 0.000000 0.770598
v 0.463927 0.000000 -0.725887
v 0.524297 0.000000 -0.500000
v 0.561472 0.000000 -0.254898
v 0.574025 0.000000 -0.000000
v 0.561473 0.000000 0.254898
v 0.524297 0.000000 0.500000
v 0.463927 0.000000 0.725888
v 0.665247 0.000000 -0.653281
v 0.746744 0.000000 -0.449988
v 0.796929 0.000000 -0.229402
v 0.813875 0.000000 -0.000000
v 0.796929 0.000000 0.229402
v 0.746744 0.000000 0.449988
v 0.665247 0.000000 0.653282
vt 0.000000 0.000000
vt 0.000000 0.000000
vt 0.000000 0.000000
vt 0.000000 0.000000
vt 0.000000 0.000000
vt 0.000000 0.000000
vt 0.000000 0.000000
vt 0.000000 0.000000
vt 0.000000 0.000000
vt 0.000000 0.000000
vt 0.000000 0.000000
vt 0.000000 0.000000
vt 0.000000 0.000000
vt 0.000000 0.000000
vt 0.000000 0.000000
vt 0.000000 0.000000
vt 0.000000 0.000000
vt 0.000000 0.000000
vt 0.000000 0.000000
vt 0.000000 0.000000
vt 0.000000 0.000000
vt 0.000000 0.000000
vt 0.000000 0.000000
vt 0.000000 0.000000
vt 0.000000 0.000000
vt 0.000000 0.000000
vt 0.000000 0.000000
vt 0.000000 0.000000
vt 0.000000 0.000000
vt 0.000000 0.000000
vt 0.000000 0.000000
vt 0.000000 0.000000
vt 0.000000 0.000000
vt 0.000000 0.000000
vt 0.000000 0.000000
vt 0.000000 0.000000
vt 0.000000 0.000000
vt 0.000000 0.000000
vt 0.000000 0.000000
vt 0.000000 0.000000
vt 0.000000 0.000000
vt 0.000000 0.000000
vt 0.000000 0.000000
vt 0.000000 0.000000
vt 0.000000 0.000000
vt 0.000000 0.000000
vt 0.000000 0.000000
vt 0.000000 0.000000
vt 0.000000 0.000000
vt 0.000000 0.000000
vt 0.000000 0.000000
vt 0.000000 0.000000
vt 0.000000 0.000000
vt 0.000000 0.000000
vt 0.000000 0.000000
vt 0.000000 0.000000
vt 0.000000 0.000000
vt 0.000000 0.000000
vt 0.000000 0.000000
vt 0.000000 0.000000
vt 0.000000 0.000000
vt 0.000000 0.000000
vt 0.000000 0.000000
vt 0.000000 0.000000
vt 0.000000 0.000000
vt 0.000000 0.000000
vt 0.000000 0.000000
vt 0.000000 0.000000
vt 0.000000 0.000000
vt 0.000000 0.000000
vt 0.000000 0.000000
vt 0.000000 0.000000
vt 0.000000 0.000000
vt 0.000000 0.000000
vt 0.000000 0.000000
vt 0.000000 0.000000
vt 0.000000 0.000000
vt 0.000000 0.000000
vt 0.000000 0.000000
vt 0.000000 0.000000
vt 0.000000 0.000000
vn 0.0000 1.0000 0.0000
usemtl None
s off
f 6/1/1 33/2/1 4/3/1 5/4/1
f 33/2/1 40/5/1 3/6/1 4/3/1
f 40/5/1 47/7/1 2/8/1 3/6/1
f 47/7/1 54/9/1 1/10/1 2/8/1
f 54/9/1 61/11/1 32/12/1 1/10/1
f 61/11/1 68/13/1 31/14/1 32/12/1
f 68/13/1 75/15/1 30/16/1 31/14/1
f 75/15/1 28/17/1 29/18/1 30/16/1
f 7/19/1 34/20/1 33/2/1 6/1/1
f 34/20/1 41/21/1 40/5/1 33/2/1
f 41/21/1 48/22/1 47/7/1 40/5/1
f 48/22/1 55/23/1 54/9/1 47/7/1
f 55/23/1 62/24/1 61/11/1 54/9/1
f 62/24/1 69/25/1 68/13/1 61/11/1
f 69/25/1 76/26/1 75/15/1 68/13/1
f 76/26/1 27/27/1 28/17/1 75/15/1
f 8/28/1 35/29/1 34/20/1 7/19/1
f 35/29/1 42/30/1 41/21/1 34/20/1
f 42/30/1 49/31/1 48/22/1 41/21/1
f 49/31/1 56/32/1 55/23/1 48/22/1
f 56/32/1 63/33/1 62/24/1 55/23/1
f 63/33/1 70/34/1 69/25/1 62/24/1
f 70/34/1 77/35/1 76/26/1 69/25/1
f 77/35/1 26/36/1 27/27/1 76/26/1
f 9/37/1 36/38/1 35/29/1 8/28/1
f 36/38/1 43/39/1 42/30/1 35/29/1
f 43/39/1 50/40/1 49/31/1 42/30/1
f 50/40/1 57/41/1 56/32/1 49/31/1
f 57/41/1 64/42/1 63/33/1 56/32/1
f 64/42/1 71/43/1 70/34/1 63/33/1
f 71/43/1 78/44/1 77/35/1 70/34/1
f 78/44/1 25/45/1 26/36/1 77/35/1
f 10/46/1 37/47/1 36/38/1 9/37/1
f 37/47/1 44/48/1 43/39/1 36/38/1
f 44/48/1 51/49/1 50/40/1 43/39/1
f 51/49/1 58/50/1 57/41/1 50/40/1
f 58/50/1 65/51/1 64/42/1 57/41/1
f 65/51/1 72/52/1 71/43/1 64/42/1
f 72/52/1 79/53/1 78/44/1 71/43/1
f 79/53/1 24/54/1 25/45/1 78/44/1
f 11/55/1 38/56/1 37/47/1 10/46/1
f 38/56/1 45/57/1 44/48/1 37/47/1
f 45/57/1 52/58/1 51/49/1 44/48/1
f 52/58/1 59/59/1 58/50/1 51/49/1
f 59/59/1 66/60/1 65/51/1 58/50/1
f 66/60/1 73/61/1 72/52/1 65/51/1
f 73/61/1 80/62/1 79/53/1 72/52/1
f 80/62/1 23/63/1 24/54/1 79/53/1
f 12/64/1 39/65/1 38/56/1 11/55/1
f 39/65/1 46/66/1 45/57/1 38/56/1
f 46/66/1 53/67/1 52/58/1 45/57/1
f 53/67/1 60/68/1 59/59/1 52/58/1
f 60/68/1 67/69/1 66/60/1 59/59/1
f 67/69/1 74/70/1 73/61/1 66/60/1
f 74/70/1 81/71/1 80/62/1 73/61/1
f 81/71/1 22/72/1 23/63/1 80/62/1
f 13/73/1 14/74/1 39/65/1 12/64/1
f 14/74/1 15/75/1 46/66/1 39/65/1
f 15/75/1 16/76/1 53/67/1 46/66/1
f 16/76/1 17/77/1 60/68/1 53/67/1
f 17/77/1 18/78/1 67/69/1 60/68/1
f 18/78/1 19/79/1 74/70/1 67/69/1
f 19/79/1 20/80/1 81/71/1 74/70/1
f 20/80/1 21/81/1 22/72/1 81/71/1
